<svg xmlns:xlink="http://www.w3.org/1999/xlink" viewBox="0 0 6284 3264" style="shape-rendering:geometricPrecision; text-rendering:geometricPrecision; image-rendering:optimizeQuality; fill-rule:evenodd; clip-rule:evenodd" version="1.1" height="3.2642in" width="6.28387in" xml:space="preserve" xmlns="http://www.w3.org/2000/svg">
 <defs>
  <style type="text/css">
   
    .fil0 {fill:black;fill-rule:nonzero}
   
  </style>
 </defs>
 <g id="Layer_x0020_1">
  <metadata id="CorelCorpID_0Corel-Layer"></metadata>
  <g id="_2227133938256">
   <path d="M263 2459c-2,0 -4,-1 -2,-5l88 -273c4,-15 10,-15 16,0l94 273c2,4 2,5 -3,5l-193 0 0 0zm-139 223l0 0c-20,50 -39,88 -85,94 -8,2 -24,2 -29,2 -6,0 -10,2 -10,6 0,8 6,9 19,9 47,0 103,-3 114,-3 10,0 54,3 77,3 10,0 16,-1 16,-9 0,-4 -2,-6 -10,-6l-9 0c-18,0 -39,-8 -39,-29 0,-17 6,-42 13,-67l62 -178c2,-4 4,-8 10,-8l216 0c4,0 6,2 8,6l94 247c6,17 0,25 -5,27 -4,2 -8,4 -8,8 0,6 12,6 31,8 69,1 143,1 156,1 12,0 21,-1 21,-9 0,-4 -3,-6 -9,-6 -12,0 -25,0 -41,-6 -21,-6 -50,-21 -87,-112 -61,-152 -220,-567 -233,-606 -14,-31 -18,-35 -23,-35 -6,0 -10,6 -22,39l-227 624 0 0z" class="fil0"></path>
   <path d="M890 2384c0,-220 127,-332 295,-332 159,0 305,131 305,373 0,291 -187,343 -278,343 -181,0 -322,-150 -322,-384zm625 483l0 0c163,89 292,133 414,133 150,0 262,-42 320,-68 6,-3 8,-7 8,-11 0,-2 -2,-6 -6,-6 -4,0 -10,2 -15,4 -70,29 -147,41 -197,41 -51,0 -203,-6 -425,-120l-205 -106c66,-43 178,-161 178,-338 0,-234 -170,-377 -396,-377 -278,0 -396,230 -396,392 0,182 114,396 394,396 52,0 122,-15 157,-35l169 95 0 0z" class="fil0"></path>
   <path d="M1776 2324c0,-156 0,-185 -2,-218 -2,-33 -9,-50 -42,-56 -8,-2 -25,-4 -35,-4 -4,0 -8,-2 -8,-5 0,-6 6,-8 16,-8 46,0 108,2 115,2 10,0 70,-2 101,-2 11,0 15,2 15,8 0,3 -4,5 -7,5 -8,0 -14,2 -25,4 -28,4 -35,21 -37,56 -2,33 -2,62 -2,218l0 141c0,145 31,207 75,249 48,45 95,54 151,54 62,0 121,-29 158,-71 46,-58 58,-143 58,-247l0 -126c0,-156 0,-185 -2,-218 -2,-33 -10,-50 -42,-56 -8,-2 -26,-4 -35,-4 -4,0 -8,-2 -8,-5 0,-6 6,-8 16,-8 46,0 100,2 108,2 5,0 54,-2 83,-2 11,0 17,2 17,8 0,3 -4,5 -10,5 -5,0 -11,0 -25,4 -27,4 -34,21 -36,56 -2,33 -2,62 -2,218l0 108c0,109 -12,228 -93,300 -71,65 -147,75 -207,75 -34,0 -135,-4 -206,-71 -50,-49 -89,-118 -89,-265l0 -147 0 0z" class="fil0"></path>
   <path d="M2726 2459c-2,0 -4,-1 -2,-5l89 -273c4,-15 9,-15 15,0l95 273c2,4 2,5 -4,5l-193 0 0 0zm-139 223l0 0c-19,50 -39,88 -85,94 -8,2 -23,2 -29,2 -6,0 -10,2 -10,6 0,8 6,9 20,9 46,0 102,-3 114,-3 11,0 54,3 77,3 9,0 15,-1 15,-9 0,-4 -2,-6 -9,-6l-10 0c-17,0 -39,-8 -39,-29 0,-17 6,-42 14,-67l62 -178c2,-4 3,-8 9,-8l216 0c4,0 6,2 8,6l95 247c6,17 0,25 -6,27 -4,2 -8,4 -8,8 0,6 12,6 31,8 70,1 143,1 157,1 11,0 21,-1 21,-9 0,-4 -4,-6 -10,-6 -11,0 -25,0 -40,-6 -22,-6 -51,-21 -87,-112 -62,-152 -218,-567 -234,-606 -13,-31 -17,-35 -23,-35 -6,0 -10,6 -21,39l-228 624 0 0z" class="fil0"></path>
   <path d="M3454 2083c0,-6 4,-10 7,-12 10,-3 37,-5 68,-5 108,0 174,75 174,200 0,76 -25,130 -62,155 -23,15 -50,19 -75,19 -45,0 -89,-8 -105,-15 -5,-4 -7,-8 -7,-14l0 -328 0 0zm-81 419l0 0c0,96 0,176 -4,218 -4,29 -10,50 -29,54 -10,2 -21,4 -31,4 -6,0 -8,4 -8,6 0,8 4,9 16,9 31,0 94,-3 94,-3 6,0 70,3 124,3 11,0 17,-3 17,-9 0,-2 -2,-6 -9,-6 -8,0 -31,-2 -45,-4 -31,-4 -37,-25 -38,-54 -6,-42 -6,-122 -6,-218l0 -25c0,-4 2,-8 7,-8l124 2c6,0 8,2 14,6 19,27 65,94 108,149 58,75 92,125 137,148 25,14 50,19 106,19l71 0c20,0 25,-1 25,-9 0,-2 -3,-6 -9,-6 -6,0 -20,0 -39,-2 -25,-4 -69,-15 -123,-73 -58,-62 -126,-151 -209,-257 91,-83 122,-158 122,-232 0,-69 -45,-119 -70,-137 -54,-38 -119,-44 -183,-44 -31,0 -108,2 -120,2 -4,0 -67,-2 -114,-2 -9,0 -15,2 -15,8 0,3 4,5 7,5 10,0 28,2 35,4 33,6 41,23 43,56 2,33 2,62 2,218l0 178 0 0z" class="fil0"></path>
   <path d="M4216 2502c0,96 0,176 4,218 4,29 10,50 41,54 13,2 36,4 44,4 6,0 8,4 8,6 0,6 -4,9 -16,9 -56,0 -117,-3 -123,-3 -6,0 -68,3 -99,3 -11,0 -15,-1 -15,-9 0,-2 2,-6 8,-6 7,0 21,-2 29,-4 21,-4 25,-25 29,-54 5,-42 5,-122 5,-218l0 -178c0,-156 0,-185 -2,-218 -2,-33 -11,-50 -34,-56 -10,-2 -24,-4 -31,-4 -4,0 -8,-2 -8,-5 0,-6 6,-8 15,-8 35,0 97,2 103,2 6,0 67,-2 98,-2 12,0 16,2 16,8 0,3 -4,5 -8,5 -6,0 -14,2 -25,4 -27,4 -35,21 -37,56 -2,33 -2,62 -2,218l0 178z" class="fil0"></path>
   <path d="M4516 2324c0,-156 0,-185 -2,-218 -2,-33 -10,-50 -43,-56 -10,-2 -25,-4 -35,-4 -4,0 -7,-2 -7,-5 0,-6 3,-8 15,-8 46,0 106,2 116,2 10,0 69,-2 100,-2 10,0 16,2 16,8 0,3 -4,5 -8,5 -8,0 -13,2 -25,4 -27,4 -37,21 -39,56 -2,33 -2,62 -2,218l0 141c0,145 33,207 76,249 50,45 94,54 152,54 62,0 122,-29 158,-71 47,-58 58,-143 58,-247l0 -126c0,-156 0,-185 -2,-218 -1,-33 -9,-50 -42,-56 -10,-2 -25,-4 -35,-4 -4,0 -7,-2 -7,-5 0,-6 3,-8 15,-8 46,0 100,2 106,2 8,0 54,-2 85,-2 12,0 16,2 16,8 0,3 -4,5 -8,5 -6,0 -14,0 -25,4 -27,4 -35,21 -37,56 -2,33 -2,62 -2,218l0 108c0,109 -11,228 -93,300 -73,65 -148,75 -206,75 -35,0 -137,-4 -209,-71 -48,-49 -86,-118 -86,-265l0 -147 0 0z" class="fil0"></path>
   <path d="M6156 2662c4,37 12,93 55,108 28,8 55,8 65,8 6,0 8,2 8,6 0,6 -10,9 -21,9 -22,0 -130,-3 -168,-5 -23,-4 -27,-6 -27,-12 0,-4 2,-6 5,-6 6,-2 6,-19 4,-36l-48 -520 -2 0 -247 523c-21,45 -23,55 -33,55 -8,0 -11,-12 -31,-47 -27,-50 -112,-224 -117,-233 -10,-20 -122,-261 -134,-288l-4 0 -40 467c0,16 0,35 0,52 0,14 12,27 25,31 17,4 33,4 39,4 3,0 7,2 7,6 0,8 -5,9 -17,9 -37,0 -85,-3 -95,-3 -7,0 -56,3 -83,3 -9,0 -17,-1 -17,-9 0,-4 4,-6 10,-6 7,0 15,0 31,-2 32,-6 34,-46 40,-83l72 -656c1,-12 5,-18 11,-18 6,0 10,4 16,14l306 633 296 -631c4,-10 8,-16 15,-16 8,0 10,8 12,27l67 616 0 0z" class="fil0"></path>
   <path d="M2479 3172c2,12 7,22 12,30 6,8 13,15 21,19 8,4 17,6 28,6 10,0 19,-2 27,-7l0 0c8,-4 14,-10 19,-18l0 0c13,-16 19,-39 19,-70 0,-15 -2,-28 -5,-40 -2,-11 -7,-21 -12,-29 -6,-8 -13,-14 -21,-18 -8,-4 -17,-6 -27,-6 -11,0 -20,2 -28,6 -8,4 -15,10 -21,18 -5,8 -9,18 -12,30 -3,11 -5,25 -5,41 0,14 2,27 5,38zm3748 -96c0,-6 -1,-11 -3,-15l0 0c-2,-4 -5,-8 -9,-12 -4,-3 -9,-6 -15,-8 -6,-1 -12,-2 -19,-2 -8,0 -16,1 -22,2 -6,2 -11,5 -15,8l0 0c-4,2 -7,5 -8,8 -2,4 -3,8 -3,13 0,4 0,7 1,10l0 0c1,3 2,5 4,7 6,4 12,8 22,12l49 13c13,3 25,7 34,11 10,5 17,10 23,15l0 0c5,6 9,12 12,19 2,8 4,17 4,26 0,13 -3,24 -7,34 -5,10 -11,19 -20,25l0 0c-10,8 -21,13 -33,17 -13,4 -27,5 -43,5 -35,0 -61,-6 -79,-20l0 0c-9,-7 -15,-16 -20,-26 -4,-11 -6,-22 -6,-35l0 -3 3 0 46 0 3 0 0 3c0,7 1,13 3,18 3,5 6,10 11,14l0 0c4,4 9,6 16,8 6,3 14,4 23,4 8,0 15,-1 22,-3 7,-2 13,-4 18,-7 5,-5 8,-9 11,-15l0 0c2,-4 3,-10 3,-15 0,-6 -3,-11 -9,-17 -3,-2 -7,-4 -11,-6 -4,-2 -10,-4 -16,-6l0 0 -49 -15c-11,-2 -22,-6 -30,-10 -9,-4 -15,-9 -20,-14 -6,-6 -10,-12 -12,-20 -3,-7 -4,-15 -4,-25 0,-11 3,-21 7,-30 4,-9 11,-17 20,-23 17,-13 41,-20 72,-20 30,0 54,7 72,20 9,6 15,14 20,23 4,10 6,20 6,32l0 3 -2 0 -44 0 -3 0 0 0 0 -3 -3 0zm-365 6c-3,7 -5,14 -6,21l122 0c0,-8 -1,-15 -3,-22 -3,-9 -6,-17 -9,-22 -10,-12 -27,-18 -49,-18 -10,0 -19,2 -26,6 -7,3 -14,9 -19,16l0 0c-4,5 -8,12 -10,19zm155 132c-5,11 -12,20 -21,27l0 0 -1 1c-8,8 -19,13 -31,17 -13,3 -27,5 -43,5 -18,0 -34,-3 -49,-8 -14,-5 -27,-14 -38,-25l0 0c-10,-12 -17,-25 -23,-41 -5,-16 -7,-34 -7,-54 0,-21 2,-39 7,-56 6,-16 13,-31 23,-44l0 0c11,-12 24,-21 38,-26 15,-6 31,-9 49,-9 18,0 33,3 47,8 14,5 25,13 34,23 10,11 17,24 22,39 4,15 6,33 6,52l0 17 0 3 -2 0 -172 0c0,12 2,22 4,31 2,11 6,21 10,28 5,7 12,13 20,17 8,3 18,6 29,6 9,0 16,-2 23,-4l0 0c6,-2 12,-5 16,-8l0 -1c10,-8 16,-20 18,-36l0 -3 3 0 47 0 3 0 -1 4c-2,14 -6,26 -11,37l0 0zm-319 -207l21 0 23 0 3 0 0 3 0 245 0 3 -3 0 -23 0 -21 0 -3 0 0 -3 0 -245 0 -3 3 0zm-2 -106l49 0 2 0 0 3 0 47 0 2 -2 0 -49 0 -3 0 0 -2 0 -47 0 -3 3 0zm-179 106l23 0 24 0 3 0 0 3 0 18c7,-8 16,-14 25,-19 12,-5 25,-8 40,-8l10 0 3 0 0 3 0 42 0 4 -3 -1 -8 -2c-12,0 -22,2 -30,5 -9,4 -16,9 -21,15l0 1c-6,6 -10,14 -13,25 -2,11 -3,24 -3,39l0 123 0 3 -3 0 -24 0 -23 0 -3 0 0 -3 0 -242 0 -3 0 0 3 0 0 -3zm-211 214c8,4 18,6 28,6 10,0 19,-2 27,-6l0 0c8,-4 16,-11 22,-19 12,-16 18,-39 18,-70 0,-30 -6,-52 -18,-69 -6,-8 -14,-14 -22,-18 -8,-4 -17,-6 -27,-6 -10,0 -20,2 -28,6 -8,4 -15,10 -21,18 -12,17 -19,39 -19,69 0,15 2,29 5,41 3,11 8,21 14,29 6,8 13,15 21,19l0 0zm79 34c-15,6 -32,9 -51,9 -19,0 -36,-3 -51,-9 -15,-5 -28,-14 -38,-26l-1 0c-10,-12 -17,-26 -22,-43 -5,-16 -8,-34 -8,-54 0,-21 3,-39 8,-55 5,-16 13,-30 23,-41l0 0c10,-12 23,-20 38,-26 15,-6 32,-9 51,-9 19,0 36,3 51,9 15,6 27,14 38,26l0 0c10,11 18,25 23,41 5,16 8,34 8,55 0,20 -3,38 -8,54 -5,17 -13,31 -23,43l0 0c-11,12 -23,21 -38,26zm-273 -179c0,-6 -1,-11 -3,-15l0 0c-2,-4 -5,-8 -9,-12 -5,-3 -10,-6 -15,-8l0 0c-6,-1 -12,-2 -19,-2 -8,0 -15,1 -21,2 -6,2 -12,5 -16,8l0 0c-4,2 -7,5 -9,8 -2,4 -3,8 -3,13 0,4 1,7 2,10l0 0c1,3 2,5 4,7l0 0c2,2 5,4 9,6 3,2 8,4 13,6l49 13c13,3 24,7 33,11l0 0c9,5 17,9 24,15l0 0c5,6 9,12 12,19 2,8 3,17 3,26 0,13 -2,24 -6,34 -5,10 -11,19 -20,25l0 0c-10,8 -22,13 -34,17 -13,4 -27,5 -42,5 -35,0 -61,-6 -79,-20l0 0c-9,-7 -15,-16 -20,-26 -4,-11 -6,-22 -6,-35l0 -3 2 0 47 0 3 0 0 3c0,7 1,13 3,18 2,5 5,10 9,14 5,4 10,7 17,9 7,2 14,3 24,3 8,0 15,-1 22,-3 7,-2 12,-4 16,-7 5,-4 9,-9 11,-14 2,-5 3,-10 3,-16 0,-6 -2,-11 -7,-17 -3,-2 -7,-4 -11,-6 -5,-2 -10,-4 -16,-6l-51 -15c-11,-2 -20,-6 -29,-10 -8,-4 -16,-9 -21,-14l0 -1c-5,-5 -8,-11 -11,-19 -2,-7 -3,-15 -3,-25 0,-11 2,-21 7,-30l0 0c4,-9 11,-16 20,-23 7,-7 17,-12 29,-15 12,-3 25,-5 41,-5 30,0 54,7 71,20 9,6 16,14 20,23 5,10 7,20 7,32l0 3 -3 0 -42 0 -2 0 0 0 0 -3 -3 0zm-253 0c0,-12 -4,-19 -12,-27 -5,-3 -10,-6 -16,-8l0 0c-5,-1 -11,-2 -19,-2 -8,0 -15,1 -21,2 -6,2 -11,5 -15,8l-1 0c-3,2 -6,5 -8,8 -2,4 -3,8 -3,13 0,4 1,7 2,10l0 0c1,3 2,5 4,7 2,2 5,4 8,6l0 0c4,2 9,4 14,6l49 13c13,3 24,7 33,11l0 0c9,5 17,9 23,15l0 0c6,6 10,12 12,19 3,8 4,17 4,26 0,13 -2,24 -6,34 -5,10 -12,19 -20,25l0 0c-10,8 -22,13 -35,17 -12,4 -27,5 -42,5 -34,0 -60,-6 -78,-20l0 0c-9,-7 -16,-16 -20,-26 -4,-11 -7,-22 -7,-35l0 -3 3 0 47 0 3 0 0 3c0,14 4,24 12,32 5,4 10,7 17,9 6,2 14,3 23,3 8,0 16,-1 23,-3 6,-2 12,-4 16,-7 5,-4 8,-9 11,-14 2,-5 3,-10 3,-16 0,-6 -2,-11 -8,-17 -3,-2 -6,-4 -10,-6 -5,-2 -10,-4 -16,-6l-51 -15c-11,-2 -21,-6 -29,-10l0 0c-8,-4 -15,-9 -19,-14l0 0c-6,-6 -10,-12 -12,-20 -3,-7 -4,-15 -4,-25 0,-11 2,-21 7,-30 4,-9 11,-16 19,-23 8,-7 18,-12 30,-15 11,-3 25,-5 40,-5 31,0 55,7 72,20 9,6 16,14 20,23 5,10 7,20 7,32l0 3 -3 0 -42 0 -3 0 0 0 0 -3 -2 0zm-367 5c-2,7 -3,14 -4,22l121 0c-1,-9 -2,-18 -4,-25 -2,-8 -5,-14 -8,-19 -10,-12 -26,-18 -48,-18 -11,0 -19,2 -27,6l0 0c-7,3 -14,9 -20,16 -4,5 -7,11 -10,18zm156 133c-5,11 -12,20 -20,27l0 0 -1 1c-10,8 -21,13 -33,17 -12,4 -26,5 -41,5 -19,0 -35,-3 -49,-8 -15,-5 -27,-14 -38,-25l0 0c-11,-12 -19,-25 -24,-41 -5,-16 -7,-34 -7,-54 0,-21 2,-39 7,-55 5,-17 13,-32 24,-45l0 0c11,-12 23,-21 38,-26 14,-6 30,-9 49,-9 17,0 32,3 46,8 13,5 25,13 35,23l0 0c9,11 16,25 21,41 5,14 7,31 7,50l0 17 0 3 -3 0 -171 0c0,12 1,22 3,31 3,11 7,21 11,28 5,7 12,13 20,17 8,3 17,6 29,6 8,0 15,-1 21,-4 7,-2 12,-5 17,-9 5,-4 9,-9 12,-15l0 0c3,-6 5,-13 7,-21l0 -3 2 0 47 0 3 0 0 4c-2,14 -6,26 -12,37l0 0zm-260 -42c-2,15 -4,29 -9,41 -5,12 -11,21 -20,29 -9,8 -19,13 -32,17 -12,4 -26,5 -42,5 -42,0 -72,-11 -92,-33 -10,-11 -17,-24 -21,-41 -5,-16 -7,-36 -7,-58 0,-21 2,-39 8,-55 5,-16 12,-30 22,-41l0 0c11,-12 24,-20 39,-26 15,-6 32,-9 51,-9 15,0 28,2 40,5 12,4 23,9 32,17 10,8 17,17 22,28 4,11 6,24 6,38l0 3 -2 0 -45 0 -3 0 0 -3c-1,-8 -2,-15 -5,-21 -2,-6 -6,-11 -11,-15l0 0c-5,-4 -11,-8 -17,-10 -6,-3 -13,-4 -22,-4 -11,0 -20,2 -28,5l0 0c-7,4 -13,10 -18,17 -5,7 -10,17 -12,29 -3,12 -5,26 -5,42 0,16 2,30 4,41 3,14 6,24 11,32 5,7 11,12 19,16 8,4 18,6 29,6 19,0 33,-4 41,-14l0 -1c5,-4 9,-9 11,-16l0 0c3,-7 4,-15 5,-24l1 -3 2 0 45 0 3 0 0 3 0 0 0 0zm-273 0c-1,15 -4,29 -8,41 -5,12 -12,21 -21,29 -8,8 -19,13 -31,17 -12,4 -27,5 -43,5 -39,0 -69,-11 -89,-33 -10,-11 -18,-24 -23,-41 -5,-16 -8,-36 -8,-58 0,-42 11,-74 33,-96l0 0c11,-12 24,-21 38,-26l0 0c15,-6 31,-9 49,-9 16,0 30,2 43,6 12,3 23,9 31,16 9,8 16,17 21,28 4,11 7,24 8,38l0 3 -3 0 -47 0 -2 0 0 -3c0,-8 -2,-15 -4,-21l0 0c-3,-6 -7,-11 -12,-15l-1 0c-4,-4 -9,-8 -16,-11 -7,-2 -14,-3 -22,-3 -10,0 -19,2 -27,5 -8,4 -15,10 -20,17 -5,7 -8,17 -11,29 -2,12 -3,26 -3,42 0,16 1,31 3,43 3,13 6,22 11,29 5,7 11,13 19,17l0 0c8,4 17,6 28,6 9,0 18,-1 24,-4l0 0c7,-2 13,-5 16,-10l1 -1c5,-4 9,-9 12,-16 2,-7 4,-15 4,-24l0 -3 3 0 44 0 3 0 0 3 0 0 0 0zm-333 13c3,-9 4,-19 4,-30l0 -16 -40 0c-12,0 -23,1 -33,3 -9,2 -17,5 -23,9 -6,4 -9,9 -12,15 -2,6 -3,13 -3,21 0,6 1,11 3,16 2,5 5,10 8,14 5,3 10,5 16,7 6,2 13,3 21,3 10,0 20,-2 28,-5 7,-3 14,-8 19,-13 5,-7 9,-15 12,-24zm6 43c-2,2 -4,5 -5,7l-2 2 0 0c-7,9 -16,16 -27,20l0 0c-12,5 -25,7 -40,7 -14,0 -26,-1 -37,-5 -12,-3 -22,-8 -30,-15l0 0c-8,-6 -14,-15 -19,-25 -4,-9 -6,-20 -6,-32 0,-14 3,-27 8,-37 6,-11 14,-19 25,-27l0 0c12,-8 26,-13 41,-17 16,-3 33,-5 52,-5l38 0 0 -18c0,-9 -1,-15 -3,-20l0 0c-2,-5 -6,-9 -11,-12l0 0c-4,-4 -9,-7 -16,-9 -7,-2 -15,-3 -25,-3 -5,0 -11,1 -16,2 -5,2 -10,5 -14,8 -4,3 -7,7 -10,11 -2,5 -4,9 -4,14l0 3 -2 0 -47 0 -3 0 0 -3c1,-12 4,-24 8,-33 5,-9 11,-17 19,-22 8,-7 19,-11 31,-14 12,-3 27,-4 43,-4 15,0 28,2 40,5 12,4 23,9 32,17 9,8 17,17 21,27 5,9 7,21 7,33l0 85c0,12 0,22 1,32 0,9 0,17 1,25l0 0c0,7 1,13 2,17 0,6 1,10 2,12l2 4 -4 0 -43 0 -1 0 -1 -1c-1,-1 -3,-4 -3,-8l0 0c-1,-3 -2,-7 -2,-10 -1,-3 -1,-7 -2,-11l0 0 0 0zm-614 -327l23 0 24 0 2 0 0 3 0 127c10,-9 21,-17 33,-22 13,-5 27,-8 43,-8 33,0 57,9 73,27 7,8 13,19 18,33 4,13 6,29 6,47l0 147 0 3 -3 0 -23 0 -24 0 -3 0 0 -3 0 -145c0,-24 -4,-41 -12,-53 -5,-5 -11,-9 -18,-12 -7,-3 -15,-4 -24,-4 -25,0 -41,6 -51,18 -5,6 -9,14 -11,23 -3,10 -4,21 -4,35l0 138 0 3 -2 0 -24 0 -23 0 -3 0 0 -3 0 -351 0 0 0 -3 3 0zm-57 361c-7,1 -14,2 -21,2 -7,0 -15,0 -22,0 -9,0 -17,-1 -25,-3 -8,-2 -15,-6 -21,-10l-1 0c-5,-5 -10,-10 -13,-17 -3,-6 -5,-13 -5,-19l0 -168 -48 0 -3 0 0 -3 0 -34 0 -3 3 0 48 0 0 -39 0 -2 2 -1 45 -19 4 -2 0 5 0 58 56 0 3 0 0 3 0 34 0 3 -3 0 -56 0 0 157c0,4 0,7 1,10l0 0c1,3 2,5 4,7 2,1 5,2 9,2 3,1 7,2 10,2 13,0 24,0 32,-3l3 0 0 3 0 34 0 3 -2 0zm-255 -77c3,-9 5,-19 5,-30l0 -16 -38 0c-13,0 -24,1 -33,3 -9,2 -17,5 -23,9 -6,4 -10,9 -13,15 -3,6 -5,13 -5,21 0,6 1,11 3,16 2,5 5,10 9,14 4,3 9,5 15,7 6,2 13,3 22,3 10,0 19,-2 27,-5 8,-3 14,-8 19,-13 5,-7 10,-15 12,-24zm8 41c-1,3 -3,5 -4,9l-2 4 -1 -1c-8,9 -17,15 -28,19 -11,5 -24,7 -38,7 -15,0 -28,-1 -39,-5 -12,-3 -21,-8 -29,-15l0 0c-9,-6 -15,-15 -19,-24 -3,-10 -5,-21 -5,-33 0,-14 3,-27 8,-37 6,-11 14,-19 25,-27 11,-8 24,-13 39,-17 15,-3 33,-5 52,-5l38 0 0 -18c0,-9 -1,-15 -3,-20 -2,-5 -5,-9 -9,-12l0 0c-4,-4 -10,-7 -16,-9 -7,-2 -15,-3 -25,-3 -7,0 -13,1 -18,2 -6,2 -10,5 -14,8 -4,3 -7,7 -9,11l0 0c-2,4 -4,10 -5,15l0 2 -3 0 -47 0 -3 0 1 -3c1,-13 4,-24 9,-33 4,-9 11,-17 19,-22 8,-7 18,-11 30,-14 12,-3 26,-4 42,-4 15,0 29,2 41,5l0 0c13,4 24,9 33,17l0 0c9,8 16,17 20,27 5,10 7,21 7,33l0 85c0,13 1,24 1,35 1,8 1,15 1,22 1,6 1,11 2,15 0,7 1,12 2,14l2 4 -4 0 -43 0 -1 0 -1 -1c-2,-2 -2,-5 -3,-10 -1,-2 -1,-5 -2,-8l0 -1c0,-2 0,-5 0,-9 0,-1 -1,-2 -1,-3zm-398 32l-45 0 -1 -3 -2 0 0 -351 0 -3 3 0 21 0 24 0 2 0 0 3 0 131c9,-11 19,-20 32,-25 13,-6 28,-9 44,-9 17,0 32,3 45,9 13,6 23,14 32,26 10,11 17,25 21,41 5,16 7,34 7,55 0,20 -2,38 -7,55 -4,16 -11,30 -21,42 -10,12 -21,21 -35,27 -13,5 -28,8 -44,8 -16,0 -31,-3 -44,-8 -11,-5 -21,-12 -30,-21l0 20 0 3 -2 0z" class="fil0"></path>
   <path d="M2546 608c126,0 257,45 564,174 307,129 550,199 741,199 192,0 319,-130 321,-132 -31,-474 -425,-849 -906,-849 -420,0 -772,284 -876,670 2,-6 39,-62 156,-62l0 0z" class="fil0"></path>
   <path d="M3720 1056c-313,0 -554,-46 -909,-145 -350,-96 -950,-359 -1182,-123 39,-35 191,-132 574,2 457,162 1036,482 1544,482 187,0 311,-54 390,-110 23,-81 37,-166 37,-255 0,-5 0,-13 0,-21 -4,4 -143,170 -454,170l0 0z" class="fil0"></path>
   <path d="M3500 1409c-436,0 -886,-125 -1261,-233 -372,-108 -722,-236 -996,-236 -272,0 -367,135 -367,135 0,0 89,-94 292,-94 201,0 390,54 780,212 390,158 1183,560 1818,471 166,-108 294,-270 360,-461 -118,125 -309,206 -626,206z" class="fil0"></path>
  </g>
 </g>
</svg>
